# Blender 4.2.1 LTS
# www.blender.org
mtllib streetlight.mtl
o Circle
v 0.000000 0.000000 -0.191679
v -0.135538 0.000000 -0.135538
v -0.191679 0.000000 0.000000
v -0.135538 0.000000 0.135538
v 0.000000 0.000000 0.191679
v 0.135538 0.000000 0.135538
v 0.191679 0.000000 0.000000
v 0.135538 0.000000 -0.135538
v -0.074258 0.050000 -0.074258
v 0.000000 0.050000 -0.105017
v -0.105017 0.050000 0.000000
v -0.074258 0.050000 0.074258
v 0.000000 0.050000 0.105017
v 0.074258 0.050000 0.074258
v 0.105017 0.050000 0.000000
v 0.074258 0.050000 -0.074258
v -0.135538 0.050000 -0.135538
v 0.000000 0.050000 -0.191679
v -0.191679 0.050000 0.000000
v -0.135538 0.050000 0.135538
v 0.000000 0.050000 0.191679
v 0.135538 0.050000 0.135538
v 0.191679 0.050000 0.000000
v 0.135538 0.050000 -0.135538
v 0.074258 2.050000 -0.074258
v 0.105017 2.050000 0.000000
v 0.074258 2.050000 0.074258
v 0.000000 2.050000 0.105017
v -0.074258 2.050000 0.074258
v -0.105017 2.050000 0.000000
v 0.000000 2.050000 -0.105017
v -0.074258 2.050000 -0.074258
v 0.121752 2.127249 -0.074258
v 0.148390 2.111869 0.000000
v 0.121752 2.127249 0.074258
v 0.057442 2.164378 0.105017
v -0.006867 2.201507 0.074258
v -0.033505 2.216886 0.000000
v 0.057442 2.164378 -0.105017
v -0.006867 2.201507 -0.074258
v 0.201507 2.170401 -0.074258
v 0.216886 2.143763 0.000000
v 0.201507 2.170401 0.074258
v 0.164378 2.234710 0.105017
v 0.127249 2.299020 0.074258
v 0.111869 2.325658 0.000000
v 0.164378 2.234710 -0.105017
v 0.127249 2.299020 -0.074258
v 0.292153 2.167895 -0.074258
v 0.292153 2.137136 0.000000
v 0.292153 2.167895 0.074258
v 0.292153 2.242153 0.105017
v 0.292153 2.316411 0.074258
v 0.292153 2.347170 0.000000
v 0.292153 2.242153 -0.105017
v 0.292153 2.316411 -0.074258
v 0.369402 2.120401 -0.074258
v 0.354022 2.093763 0.000000
v 0.369402 2.120401 0.074258
v 0.406531 2.184711 0.105017
v 0.443660 2.249020 0.074258
v 0.459039 2.275658 0.000000
v 0.406531 2.184711 -0.105017
v 0.443660 2.249020 -0.074258
v 0.412554 2.040646 -0.074258
v 0.385916 2.025267 0.000000
v 0.412554 2.040646 0.074258
v 0.476864 2.077775 0.105017
v 0.541173 2.114904 0.074258
v 0.567811 2.130284 0.000000
v 0.476864 2.077775 -0.105017
v 0.541173 2.114904 -0.074258
v 0.410048 2.041987 -0.074258
v 0.379289 2.041986 0.000000
v 0.410048 2.041987 0.074258
v 0.484306 2.041987 0.105017
v 0.558564 2.041986 0.074258
v 0.589323 2.041986 0.000000
v 0.484306 2.041987 -0.105017
v 0.558564 2.041986 -0.074258
v 0.410048 1.996375 -0.074258
v 0.379289 1.996375 0.000000
v 0.410048 1.996375 0.074258
v 0.484306 1.996375 0.105017
v 0.558564 1.996375 0.074258
v 0.589323 1.996374 0.000000
v 0.484306 1.996375 -0.105017
v 0.558564 1.996375 -0.074258
v 0.392344 2.043282 -0.093406
v 0.353654 2.043281 0.000000
v 0.392344 2.043282 0.093406
v 0.485750 2.043282 0.132095
v 0.579155 2.043281 0.093406
v 0.617845 2.043281 0.000000
v 0.485750 2.043282 -0.132095
v 0.579155 2.043281 -0.093406
v 0.364697 2.013134 -0.123308
v 0.313621 2.013133 0.000000
v 0.364697 2.013134 0.123308
v 0.488005 2.013134 0.174384
v 0.611312 2.013133 0.123308
v 0.662388 2.013133 0.000000
v 0.488005 2.013134 -0.174384
v 0.611312 2.013133 -0.123308
v 0.348857 1.982203 -0.140439
v 0.290685 1.982203 0.000000
v 0.348857 1.982203 0.140439
v 0.489297 1.982203 0.198611
v 0.629736 1.982203 0.140439
v 0.687908 1.982202 0.000000
v 0.489297 1.982203 -0.198611
v 0.629736 1.982203 -0.140439
v 0.317009 1.945103 -0.174885
v 0.244569 1.945102 0.000000
v 0.317009 1.945103 0.174885
v 0.491894 1.945103 0.247325
v 0.666779 1.945102 0.174885
v 0.739219 1.945101 0.000000
v 0.491894 1.945103 -0.247325
v 0.666779 1.945102 -0.174885
vn -0.0000 -1.0000 -0.0000
vn 0.3827 -0.0000 -0.9239
vn 0.9239 -0.0000 0.3827
vn -0.3827 -0.0000 0.9239
vn -0.9239 -0.0000 -0.3827
vn 0.9239 -0.0000 -0.3827
vn 0.3827 -0.0000 0.9239
vn -0.9239 -0.0000 0.3827
vn -0.3827 -0.0000 -0.9239
vn -0.0000 1.0000 -0.0000
vn 0.3542 -0.1940 0.9148
vn -0.3615 0.1697 -0.9168
vn 0.7826 -0.5112 0.3554
vn -0.8523 0.3718 0.3679
vn 0.3542 -0.1940 -0.9148
vn -0.3615 0.1697 0.9168
vn -0.8523 0.3718 -0.3679
vn 0.7826 -0.5112 -0.3554
vn -0.2282 0.3278 0.9168
vn -0.5522 0.7482 -0.3679
vn -0.5522 0.7482 0.3679
vn 0.4222 -0.8340 -0.3554
vn 0.2098 -0.3451 0.9148
vn -0.2282 0.3278 -0.9168
vn 0.4222 -0.8340 0.3554
vn 0.2098 -0.3451 -0.9148
vn -0.0338 0.3980 -0.9168
vn -0.0514 -0.9333 0.3554
vn 0.0091 -0.4037 -0.9148
vn -0.0338 0.3980 0.9168
vn -0.1041 0.9240 -0.3679
vn -0.1041 0.9240 0.3679
vn -0.0514 -0.9333 -0.3554
vn 0.0091 -0.4037 0.9148
vn -0.5112 -0.7826 -0.3554
vn -0.1940 -0.3542 0.9148
vn 0.1697 0.3615 -0.9168
vn -0.5112 -0.7826 0.3554
vn -0.1940 -0.3542 -0.9148
vn 0.1697 0.3615 0.9168
vn 0.3718 0.8523 -0.3679
vn 0.3718 0.8523 0.3679
vn 0.7482 0.5522 -0.3679
vn 0.7482 0.5522 0.3679
vn -0.8340 -0.4222 -0.3554
vn -0.3451 -0.2098 0.9148
vn 0.3278 0.2282 -0.9168
vn -0.8340 -0.4222 0.3554
vn -0.3451 -0.2098 -0.9148
vn 0.3278 0.2282 0.9168
vn -0.3925 -0.0562 -0.9180
vn 0.3844 0.0878 0.9190
vn 0.9026 0.2178 -0.3714
vn 0.9026 0.2178 0.3714
vn 0.8309 0.4202 0.3647
vn -0.3925 -0.0562 0.9180
vn 0.3844 0.0878 -0.9190
vn 0.8309 0.4202 -0.3647
vn -0.0194 0.9987 0.0467
vn 0.0504 0.9985 -0.0209
vn 0.0202 0.9986 0.0488
vn -0.0194 0.9987 -0.0467
vn -0.0453 0.9988 0.0188
vn -0.0453 0.9988 -0.0188
vn 0.0504 0.9985 0.0209
vn 0.0202 0.9986 -0.0488
vn -0.2371 0.7850 0.5723
vn 0.2306 0.7981 -0.5567
vn -0.5837 0.7751 0.2418
vn -0.2371 0.7850 -0.5723
vn 0.2306 0.7981 0.5567
vn 0.5460 0.8067 -0.2262
vn 0.5460 0.8067 0.2262
vn -0.5837 0.7751 -0.2418
vn 0.7348 0.6062 -0.3043
vn 0.7348 0.6062 0.3043
vn -0.7622 0.5652 -0.3157
vn -0.3124 0.5777 0.7541
vn 0.3077 0.5947 -0.7428
vn -0.7622 0.5652 0.3157
vn -0.3124 0.5777 -0.7541
vn 0.3077 0.5947 0.7428
vn 0.2403 0.7784 0.5800
vn 0.5694 0.7875 -0.2359
vn 0.5694 0.7875 0.2359
vn -0.6067 0.7541 -0.2513
vn -0.2466 0.7646 0.5955
vn 0.2403 0.7784 -0.5800
vn -0.6067 0.7541 0.2513
vn -0.2466 0.7646 -0.5955
vt 0.000000 0.000000
s 0
usemtl light
f 2/1/1 1/1/1 8/1/1 7/1/1 6/1/1 5/1/1 4/1/1 3/1/1
f 8/1/2 1/1/2 18/1/2 24/1/2
f 6/1/3 7/1/3 23/1/3 22/1/3
f 4/1/4 5/1/4 21/1/4 20/1/4
f 2/1/5 3/1/5 19/1/5 17/1/5
f 7/1/6 8/1/6 24/1/6 23/1/6
f 5/1/7 6/1/7 22/1/7 21/1/7
f 3/1/8 4/1/8 20/1/8 19/1/8
f 1/1/9 2/1/9 17/1/9 18/1/9
f 9/1/10 10/1/10 18/1/10 17/1/10
f 11/1/10 9/1/10 17/1/10 19/1/10
f 12/1/10 11/1/10 19/1/10 20/1/10
f 13/1/10 12/1/10 20/1/10 21/1/10
f 14/1/10 13/1/10 21/1/10 22/1/10
f 15/1/10 14/1/10 22/1/10 23/1/10
f 16/1/10 15/1/10 23/1/10 24/1/10
f 10/1/10 16/1/10 24/1/10 18/1/10
f 16/1/2 10/1/2 31/1/2 25/1/2
f 14/1/3 15/1/3 26/1/3 27/1/3
f 13/1/7 14/1/7 27/1/7 28/1/7
f 10/1/9 9/1/9 32/1/9 31/1/9
f 11/1/8 12/1/8 29/1/8 30/1/8
f 15/1/6 16/1/6 25/1/6 26/1/6
f 9/1/5 11/1/5 30/1/5 32/1/5
f 12/1/4 13/1/4 28/1/4 29/1/4
f 28/1/11 27/1/11 35/1/11 36/1/11
f 31/1/12 32/1/12 40/1/12 39/1/12
f 27/1/13 26/1/13 34/1/13 35/1/13
f 30/1/14 29/1/14 37/1/14 38/1/14
f 25/1/15 31/1/15 39/1/15 33/1/15
f 29/1/16 28/1/16 36/1/16 37/1/16
f 32/1/17 30/1/17 38/1/17 40/1/17
f 26/1/18 25/1/18 33/1/18 34/1/18
f 37/1/19 36/1/19 44/1/19 45/1/19
f 40/1/20 38/1/20 46/1/20 48/1/20
f 38/1/21 37/1/21 45/1/21 46/1/21
f 34/1/22 33/1/22 41/1/22 42/1/22
f 36/1/23 35/1/23 43/1/23 44/1/23
f 39/1/24 40/1/24 48/1/24 47/1/24
f 35/1/25 34/1/25 42/1/25 43/1/25
f 33/1/26 39/1/26 47/1/26 41/1/26
f 47/1/27 48/1/27 56/1/27 55/1/27
f 43/1/28 42/1/28 50/1/28 51/1/28
f 41/1/29 47/1/29 55/1/29 49/1/29
f 45/1/30 44/1/30 52/1/30 53/1/30
f 48/1/31 46/1/31 54/1/31 56/1/31
f 46/1/32 45/1/32 53/1/32 54/1/32
f 42/1/33 41/1/33 49/1/33 50/1/33
f 44/1/34 43/1/34 51/1/34 52/1/34
f 50/1/35 49/1/35 57/1/35 58/1/35
f 52/1/36 51/1/36 59/1/36 60/1/36
f 55/1/37 56/1/37 64/1/37 63/1/37
f 51/1/38 50/1/38 58/1/38 59/1/38
f 49/1/39 55/1/39 63/1/39 57/1/39
f 53/1/40 52/1/40 60/1/40 61/1/40
f 56/1/41 54/1/41 62/1/41 64/1/41
f 54/1/42 53/1/42 61/1/42 62/1/42
f 64/1/43 62/1/43 70/1/43 72/1/43
f 62/1/44 61/1/44 69/1/44 70/1/44
f 58/1/45 57/1/45 65/1/45 66/1/45
f 60/1/46 59/1/46 67/1/46 68/1/46
f 63/1/47 64/1/47 72/1/47 71/1/47
f 59/1/48 58/1/48 66/1/48 67/1/48
f 57/1/49 63/1/49 71/1/49 65/1/49
f 61/1/50 60/1/50 68/1/50 69/1/50
f 65/1/51 71/1/51 79/1/51 73/1/51
f 69/1/52 68/1/52 76/1/52 77/1/52
f 72/1/53 70/1/53 78/1/53 80/1/53
f 70/1/54 69/1/54 77/1/54 78/1/54
f 66/1/55 65/1/55 73/1/55 74/1/55
f 68/1/56 67/1/56 75/1/56 76/1/56
f 71/1/57 72/1/57 80/1/57 79/1/57
f 67/1/58 66/1/58 74/1/58 75/1/58
f 79/1/2 80/1/2 88/1/2 87/1/2
f 75/1/8 74/1/8 82/1/8 83/1/8
f 73/1/9 79/1/9 87/1/9 81/1/9
f 77/1/7 76/1/7 84/1/7 85/1/7
f 80/1/6 78/1/6 86/1/6 88/1/6
f 78/1/3 77/1/3 85/1/3 86/1/3
f 74/1/5 73/1/5 81/1/5 82/1/5
f 76/1/4 75/1/4 83/1/4 84/1/4
f 80/1/59 96/1/59 95/1/59 79/1/59
f 74/1/60 90/1/60 91/1/60 75/1/60
f 79/1/61 95/1/61 89/1/61 73/1/61
f 76/1/62 92/1/62 93/1/62 77/1/62
f 78/1/63 94/1/63 96/1/63 80/1/63
f 77/1/64 93/1/64 94/1/64 78/1/64
f 73/1/65 89/1/65 90/1/65 74/1/65
f 75/1/66 91/1/66 92/1/66 76/1/66
f 91/1/67 99/1/67 100/1/67 92/1/67
f 96/1/68 104/1/68 103/1/68 95/1/68
f 90/1/69 98/1/69 99/1/69 91/1/69
f 95/1/70 103/1/70 97/1/70 89/1/70
f 92/1/71 100/1/71 101/1/71 93/1/71
f 94/1/72 102/1/72 104/1/72 96/1/72
f 93/1/73 101/1/73 102/1/73 94/1/73
f 89/1/74 97/1/74 98/1/74 90/1/74
f 102/1/75 110/1/75 112/1/75 104/1/75
f 101/1/76 109/1/76 110/1/76 102/1/76
f 97/1/77 105/1/77 106/1/77 98/1/77
f 99/1/78 107/1/78 108/1/78 100/1/78
f 104/1/79 112/1/79 111/1/79 103/1/79
f 98/1/80 106/1/80 107/1/80 99/1/80
f 103/1/81 111/1/81 105/1/81 97/1/81
f 100/1/82 108/1/82 109/1/82 101/1/82
f 108/1/83 116/1/83 117/1/83 109/1/83
f 110/1/84 118/1/84 120/1/84 112/1/84
f 109/1/85 117/1/85 118/1/85 110/1/85
f 105/1/86 113/1/86 114/1/86 106/1/86
f 107/1/87 115/1/87 116/1/87 108/1/87
f 112/1/88 120/1/88 119/1/88 111/1/88
f 106/1/89 114/1/89 115/1/89 107/1/89
f 111/1/90 119/1/90 113/1/90 105/1/90
o Circle.001
v 0.520714 2.025148 -0.042007
v 0.556326 1.991496 -0.077619
v 0.580121 1.941133 -0.101415
v 0.588477 1.881726 -0.109770
v 0.580121 1.822319 -0.101415
v 0.556326 1.771956 -0.077619
v 0.520714 1.738304 -0.042007
v 0.538114 2.025148 0.000000
v 0.588477 1.991496 0.000000
v 0.622128 1.941133 0.000000
v 0.633945 1.881726 0.000000
v 0.622128 1.822319 0.000000
v 0.588477 1.771956 0.000000
v 0.538114 1.738304 0.000000
v 0.520714 2.025148 0.042007
v 0.556326 1.991496 0.077619
v 0.580121 1.941133 0.101415
v 0.588477 1.881726 0.109770
v 0.580121 1.822319 0.101415
v 0.556326 1.771956 0.077619
v 0.520714 1.738304 0.042007
v 0.478706 2.025148 0.059407
v 0.478706 1.991496 0.109770
v 0.478706 1.941133 0.143422
v 0.478706 1.881726 0.155239
v 0.478706 1.822319 0.143422
v 0.478706 1.771956 0.109770
v 0.478706 1.738304 0.059407
v 0.436699 2.025148 0.042007
v 0.401087 1.991496 0.077619
v 0.377292 1.941133 0.101415
v 0.368936 1.881726 0.109770
v 0.377292 1.822319 0.101415
v 0.401087 1.771956 0.077619
v 0.436699 1.738304 0.042007
v 0.419299 2.025148 0.000000
v 0.368936 1.991496 0.000000
v 0.335285 1.941133 0.000000
v 0.323468 1.881726 0.000000
v 0.335285 1.822319 0.000000
v 0.368936 1.771956 0.000000
v 0.419299 1.738304 0.000000
v 0.436699 2.025148 -0.042007
v 0.401087 1.991496 -0.077619
v 0.377292 1.941133 -0.101415
v 0.368936 1.881726 -0.109770
v 0.377292 1.822319 -0.101415
v 0.401087 1.771956 -0.077619
v 0.436699 1.738304 -0.042007
v 0.478706 1.726487 0.000000
v 0.478706 2.036964 0.000000
v 0.478706 2.025148 -0.059407
v 0.478706 1.991496 -0.109770
v 0.478706 1.941133 -0.143422
v 0.478706 1.881726 -0.155239
v 0.478706 1.822319 -0.143422
v 0.478706 1.771956 -0.109770
v 0.478706 1.738304 -0.059407
vn 0.3764 -0.1807 -0.9087
vn 0.3256 0.5253 -0.7862
vn 0.0805 0.9776 -0.1945
vn 0.0805 -0.9776 -0.1945
vn 0.3256 -0.5253 -0.7862
vn 0.3764 0.1807 -0.9087
vn 0.2243 0.8103 -0.5414
vn 0.2243 -0.8103 -0.5414
vn 0.1945 -0.9776 -0.0805
vn 0.7862 -0.5253 -0.3256
vn 0.9087 0.1807 -0.3764
vn 0.5414 0.8103 -0.2243
vn 0.5414 -0.8103 -0.2243
vn 0.9087 -0.1807 -0.3764
vn 0.7862 0.5253 -0.3256
vn 0.1944 0.9776 -0.0805
vn 0.5414 0.8103 0.2243
vn 0.5414 -0.8103 0.2243
vn 0.9087 -0.1807 0.3764
vn 0.7862 0.5253 0.3256
vn 0.1944 0.9776 0.0805
vn 0.1945 -0.9776 0.0805
vn 0.7862 -0.5253 0.3256
vn 0.9087 0.1807 0.3764
vn 0.2243 -0.8103 0.5414
vn 0.3764 -0.1807 0.9087
vn 0.3256 0.5253 0.7862
vn 0.0805 0.9776 0.1945
vn 0.0805 -0.9776 0.1945
vn 0.3256 -0.5253 0.7862
vn 0.3764 0.1807 0.9087
vn 0.2243 0.8103 0.5414
vn -0.0805 0.9776 0.1945
vn -0.0805 -0.9776 0.1945
vn -0.3256 -0.5253 0.7862
vn -0.3764 0.1807 0.9087
vn -0.2243 0.8103 0.5414
vn -0.2243 -0.8103 0.5414
vn -0.3764 -0.1807 0.9087
vn -0.3256 0.5253 0.7862
vn -0.7862 -0.5253 0.3256
vn -0.9087 0.1807 0.3764
vn -0.5414 0.8103 0.2243
vn -0.5414 -0.8103 0.2243
vn -0.9087 -0.1807 0.3764
vn -0.7862 0.5253 0.3256
vn -0.1944 0.9776 0.0805
vn -0.1945 -0.9776 0.0805
vn -0.5414 -0.8103 -0.2243
vn -0.9087 -0.1807 -0.3764
vn -0.7862 0.5253 -0.3256
vn -0.1944 0.9776 -0.0805
vn -0.1945 -0.9776 -0.0805
vn -0.7862 -0.5253 -0.3256
vn -0.9087 0.1807 -0.3764
vn -0.5414 0.8103 -0.2243
vn -0.3764 -0.1807 -0.9087
vn -0.3256 0.5253 -0.7862
vn -0.0805 0.9776 -0.1945
vn -0.0805 -0.9776 -0.1945
vn -0.3256 -0.5253 -0.7862
vn -0.3764 0.1807 -0.9087
vn -0.2243 0.8103 -0.5414
vn -0.2243 -0.8103 -0.5414
vt 0.750000 0.375000
vt 0.750000 0.500000
vt 0.625000 0.500000
vt 0.625000 0.375000
vt 0.750000 0.625000
vt 0.750000 0.750000
vt 0.625000 0.750000
vt 0.625000 0.625000
vt 0.750000 0.875000
vt 0.687500 1.000000
vt 0.625000 0.875000
vt 0.687500 0.000000
vt 0.750000 0.125000
vt 0.625000 0.125000
vt 0.750000 0.250000
vt 0.625000 0.250000
vt 0.562500 0.000000
vt 0.500000 0.125000
vt 0.500000 0.375000
vt 0.500000 0.250000
vt 0.500000 0.625000
vt 0.500000 0.500000
vt 0.500000 0.875000
vt 0.500000 0.750000
vt 0.562500 1.000000
vt 0.375000 0.875000
vt 0.375000 0.750000
vt 0.375000 0.250000
vt 0.375000 0.125000
vt 0.375000 0.500000
vt 0.375000 0.375000
vt 0.375000 0.625000
vt 0.437500 1.000000
vt 0.437500 0.000000
vt 0.250000 0.250000
vt 0.250000 0.125000
vt 0.250000 0.500000
vt 0.250000 0.375000
vt 0.250000 0.750000
vt 0.250000 0.625000
vt 0.312500 1.000000
vt 0.250000 0.875000
vt 0.312500 0.000000
vt 0.187500 1.000000
vt 0.125000 0.875000
vt 0.187500 0.000000
vt 0.125000 0.125000
vt 0.125000 0.375000
vt 0.125000 0.250000
vt 0.125000 0.625000
vt 0.125000 0.500000
vt 0.125000 0.750000
vt 0.000000 0.375000
vt 0.000000 0.250000
vt 0.000000 0.625000
vt 0.000000 0.500000
vt 0.000000 0.875000
vt 0.000000 0.750000
vt 0.000000 0.125000
vt 0.062500 1.000000
vt 0.062500 0.000000
vt 1.000000 0.125000
vt 1.000000 0.250000
vt 0.875000 0.250000
vt 0.875000 0.125000
vt 1.000000 0.375000
vt 1.000000 0.500000
vt 0.875000 0.500000
vt 0.875000 0.375000
vt 1.000000 0.625000
vt 1.000000 0.750000
vt 0.875000 0.750000
vt 0.875000 0.625000
vt 1.000000 0.875000
vt 0.937500 1.000000
vt 0.875000 0.875000
vt 0.937500 0.000000
vt 0.812500 1.000000
vt 0.812500 0.000000
s 0
usemtl Material.002
f 176/2/91 175/3/91 124/4/91 125/5/91
f 174/6/92 173/7/92 122/8/92 123/9/92
f 172/10/93 171/11/93 121/12/93
f 170/13/94 178/14/94 127/15/94
f 177/16/95 176/2/95 125/5/95 126/17/95
f 175/3/96 174/6/96 123/9/96 124/4/96
f 173/7/97 172/10/97 121/12/97 122/8/97
f 178/14/98 177/16/98 126/17/98 127/15/98
f 170/18/99 127/15/99 134/19/99
f 126/17/100 125/5/100 132/20/100 133/21/100
f 124/4/101 123/9/101 130/22/101 131/23/101
f 122/8/102 121/12/102 128/24/102 129/25/102
f 127/15/103 126/17/103 133/21/103 134/19/103
f 125/5/104 124/4/104 131/23/104 132/20/104
f 123/9/105 122/8/105 129/25/105 130/22/105
f 121/12/106 171/26/106 128/24/106
f 129/25/107 128/24/107 135/27/107 136/28/107
f 134/19/108 133/21/108 140/29/108 141/30/108
f 132/20/109 131/23/109 138/31/109 139/32/109
f 130/22/110 129/25/110 136/28/110 137/33/110
f 128/24/111 171/34/111 135/27/111
f 170/35/112 134/19/112 141/30/112
f 133/21/113 132/20/113 139/32/113 140/29/113
f 131/23/114 130/22/114 137/33/114 138/31/114
f 141/30/115 140/29/115 147/36/115 148/37/115
f 139/32/116 138/31/116 145/38/116 146/39/116
f 137/33/117 136/28/117 143/40/117 144/41/117
f 135/27/118 171/42/118 142/43/118
f 170/44/119 141/30/119 148/37/119
f 140/29/120 139/32/120 146/39/120 147/36/120
f 138/31/121 137/33/121 144/41/121 145/38/121
f 136/28/122 135/27/122 142/43/122 143/40/122
f 142/43/123 171/45/123 149/46/123
f 170/47/124 148/37/124 155/48/124
f 147/36/125 146/39/125 153/49/125 154/50/125
f 145/38/126 144/41/126 151/51/126 152/52/126
f 143/40/127 142/43/127 149/46/127 150/53/127
f 148/37/128 147/36/128 154/50/128 155/48/128
f 146/39/129 145/38/129 152/52/129 153/49/129
f 144/41/130 143/40/130 150/53/130 151/51/130
f 154/50/131 153/49/131 160/54/131 161/55/131
f 152/52/132 151/51/132 158/56/132 159/57/132
f 150/53/133 149/46/133 156/58/133 157/59/133
f 155/48/134 154/50/134 161/55/134 162/60/134
f 153/49/135 152/52/135 159/57/135 160/54/135
f 151/51/136 150/53/136 157/59/136 158/56/136
f 149/46/137 171/61/137 156/58/137
f 170/62/138 155/48/138 162/60/138
f 162/63/139 161/64/139 168/65/139 169/66/139
f 160/67/140 159/68/140 166/69/140 167/70/140
f 158/71/141 157/72/141 164/73/141 165/74/141
f 156/75/142 171/76/142 163/77/142
f 170/78/143 162/63/143 169/66/143
f 161/64/144 160/67/144 167/70/144 168/65/144
f 159/68/145 158/71/145 165/74/145 166/69/145
f 157/72/146 156/75/146 163/77/146 164/73/146
f 167/70/147 166/69/147 175/3/147 176/2/147
f 165/74/148 164/73/148 173/7/148 174/6/148
f 163/77/149 171/79/149 172/10/149
f 170/80/150 169/66/150 178/14/150
f 168/65/151 167/70/151 176/2/151 177/16/151
f 166/69/152 165/74/152 174/6/152 175/3/152
f 164/73/153 163/77/153 172/10/153 173/7/153
f 169/66/154 168/65/154 177/16/154 178/14/154
